<svg width="350" height="350" version="1.1" xmlns="http://www.w3.org/2000/svg" xmlns:xlink="http://www.w3.org/1999/xlink"><svg><rect x="0" y="0" width="350" height="350" style="fill:#fff;shape-rendering:crispEdges;"></rect><path x="0" y="0" style="fill:#000;shape-rendering:crispEdges;" d="M0,0 V10.61 H10.61 V0 H0 Z M10.61,0 V10.61 H21.21 V0 H10.61 Z M21.21,0 V10.61 H31.82 V0 H21.21 Z M31.82,0 V10.61 H42.42 V0 H31.82 Z M42.42,0 V10.61 H53.03 V0 H42.42 Z M53.03,0 V10.61 H63.64 V0 H53.03 Z M63.64,0 V10.61 H74.24 V0 H63.64 Z M106.06,0 V10.61 H116.67 V0 H106.06 Z M116.67,0 V10.61 H127.27 V0 H116.67 Z M127.27,0 V10.61 H137.88 V0 H127.27 Z M137.88,0 V10.61 H148.48 V0 H137.88 Z M148.48,0 V10.61 H159.09 V0 H148.48 Z M159.09,0 V10.61 H169.70 V0 H159.09 Z M169.70,0 V10.61 H180.30 V0 H169.70 Z M180.30,0 V10.61 H190.91 V0 H180.30 Z M190.91,0 V10.61 H201.52 V0 H190.91 Z M212.12,0 V10.61 H222.73 V0 H212.12 Z M233.33,0 V10.61 H243.94 V0 H233.33 Z M254.55,0 V10.61 H265.15 V0 H254.55 Z M275.76,0 V10.61 H286.36 V0 H275.76 Z M286.36,0 V10.61 H296.97 V0 H286.36 Z M296.97,0 V10.61 H307.58 V0 H296.97 Z M307.58,0 V10.61 H318.18 V0 H307.58 Z M318.18,0 V10.61 H328.79 V0 H318.18 Z M328.79,0 V10.61 H339.39 V0 H328.79 Z M339.39,0 V10.61 H350 V0 H339.39 Z M0,10.61 V21.21 H10.61 V10.61 H0 Z M63.64,10.61 V21.21 H74.24 V10.61 H63.64 Z M84.85,10.61 V21.21 H95.45 V10.61 H84.85 Z M106.06,10.61 V21.21 H116.67 V10.61 H106.06 Z M127.27,10.61 V21.21 H137.88 V10.61 H127.27 Z M159.09,10.61 V21.21 H169.70 V10.61 H159.09 Z M169.70,10.61 V21.21 H180.30 V10.61 H169.70 Z M190.91,10.61 V21.21 H201.52 V10.61 H190.91 Z M222.73,10.61 V21.21 H233.33 V10.61 H222.73 Z M233.33,10.61 V21.21 H243.94 V10.61 H233.33 Z M243.94,10.61 V21.21 H254.55 V10.61 H243.94 Z M275.76,10.61 V21.21 H286.36 V10.61 H275.76 Z M339.39,10.61 V21.21 H350 V10.61 H339.39 Z M0,21.21 V31.82 H10.61 V21.21 H0 Z M21.21,21.21 V31.82 H31.82 V21.21 H21.21 Z M31.82,21.21 V31.82 H42.42 V21.21 H31.82 Z M42.42,21.21 V31.82 H53.03 V21.21 H42.42 Z M63.64,21.21 V31.82 H74.24 V21.21 H63.64 Z M116.67,21.21 V31.82 H127.27 V21.21 H116.67 Z M148.48,21.21 V31.82 H159.09 V21.21 H148.48 Z M159.09,21.21 V31.82 H169.70 V21.21 H159.09 Z M190.91,21.21 V31.82 H201.52 V21.21 H190.91 Z M254.55,21.21 V31.82 H265.15 V21.21 H254.55 Z M275.76,21.21 V31.82 H286.36 V21.21 H275.76 Z M296.97,21.21 V31.82 H307.58 V21.21 H296.97 Z M307.58,21.21 V31.82 H318.18 V21.21 H307.58 Z M318.18,21.21 V31.82 H328.79 V21.21 H318.18 Z M339.39,21.21 V31.82 H350 V21.21 H339.39 Z M0,31.82 V42.42 H10.61 V31.82 H0 Z M21.21,31.82 V42.42 H31.82 V31.82 H21.21 Z M31.82,31.82 V42.42 H42.42 V31.82 H31.82 Z M42.42,31.82 V42.42 H53.03 V31.82 H42.42 Z M63.64,31.82 V42.42 H74.24 V31.82 H63.64 Z M84.85,31.82 V42.42 H95.45 V31.82 H84.85 Z M95.45,31.82 V42.42 H106.06 V31.82 H95.45 Z M116.67,31.82 V42.42 H127.27 V31.82 H116.67 Z M159.09,31.82 V42.42 H169.70 V31.82 H159.09 Z M180.30,31.82 V42.42 H190.91 V31.82 H180.30 Z M275.76,31.82 V42.42 H286.36 V31.82 H275.76 Z M296.97,31.82 V42.42 H307.58 V31.82 H296.97 Z M307.58,31.82 V42.42 H318.18 V31.82 H307.58 Z M318.18,31.82 V42.42 H328.79 V31.82 H318.18 Z M339.39,31.82 V42.42 H350 V31.82 H339.39 Z M0,42.42 V53.03 H10.61 V42.42 H0 Z M21.21,42.42 V53.03 H31.82 V42.42 H21.21 Z M31.82,42.42 V53.03 H42.42 V42.42 H31.82 Z M42.42,42.42 V53.03 H53.03 V42.42 H42.42 Z M63.64,42.42 V53.03 H74.24 V42.42 H63.64 Z M95.45,42.42 V53.03 H106.06 V42.42 H95.45 Z M116.67,42.42 V53.03 H127.27 V42.42 H116.67 Z M159.09,42.42 V53.03 H169.70 V42.42 H159.09 Z M169.70,42.42 V53.03 H180.30 V42.42 H169.70 Z M180.30,42.42 V53.03 H190.91 V42.42 H180.30 Z M201.52,42.42 V53.03 H212.12 V42.42 H201.52 Z M212.12,42.42 V53.03 H222.73 V42.42 H212.12 Z M222.73,42.42 V53.03 H233.33 V42.42 H222.73 Z M233.33,42.42 V53.03 H243.94 V42.42 H233.33 Z M243.94,42.42 V53.03 H254.55 V42.42 H243.94 Z M275.76,42.42 V53.03 H286.36 V42.42 H275.76 Z M296.97,42.42 V53.03 H307.58 V42.42 H296.97 Z M307.58,42.42 V53.03 H318.18 V42.42 H307.58 Z M318.18,42.42 V53.03 H328.79 V42.42 H318.18 Z M339.39,42.42 V53.03 H350 V42.42 H339.39 Z M0,53.03 V63.64 H10.61 V53.03 H0 Z M63.64,53.03 V63.64 H74.24 V53.03 H63.64 Z M84.85,53.03 V63.64 H95.45 V53.03 H84.85 Z M116.67,53.03 V63.64 H127.27 V53.03 H116.67 Z M137.88,53.03 V63.64 H148.48 V53.03 H137.88 Z M169.70,53.03 V63.64 H180.30 V53.03 H169.70 Z M201.52,53.03 V63.64 H212.12 V53.03 H201.52 Z M212.12,53.03 V63.64 H222.73 V53.03 H212.12 Z M222.73,53.03 V63.64 H233.33 V53.03 H222.73 Z M275.76,53.03 V63.64 H286.36 V53.03 H275.76 Z M339.39,53.03 V63.64 H350 V53.03 H339.39 Z M0,63.64 V74.24 H10.61 V63.64 H0 Z M10.61,63.64 V74.24 H21.21 V63.64 H10.61 Z M21.21,63.64 V74.24 H31.82 V63.64 H21.21 Z M31.82,63.64 V74.24 H42.42 V63.64 H31.82 Z M42.42,63.64 V74.24 H53.03 V63.64 H42.42 Z M53.03,63.64 V74.24 H63.64 V63.64 H53.03 Z M63.64,63.64 V74.24 H74.24 V63.64 H63.64 Z M84.85,63.64 V74.24 H95.45 V63.64 H84.85 Z M106.06,63.64 V74.24 H116.67 V63.64 H106.06 Z M127.27,63.64 V74.24 H137.88 V63.64 H127.27 Z M148.48,63.64 V74.24 H159.09 V63.64 H148.48 Z M169.70,63.64 V74.24 H180.30 V63.64 H169.70 Z M190.91,63.64 V74.24 H201.52 V63.64 H190.91 Z M212.12,63.64 V74.24 H222.73 V63.64 H212.12 Z M233.33,63.64 V74.24 H243.94 V63.64 H233.33 Z M254.55,63.64 V74.24 H265.15 V63.64 H254.55 Z M275.76,63.64 V74.24 H286.36 V63.64 H275.76 Z M286.36,63.64 V74.24 H296.97 V63.64 H286.36 Z M296.97,63.64 V74.24 H307.58 V63.64 H296.97 Z M307.58,63.64 V74.24 H318.18 V63.64 H307.58 Z M318.18,63.64 V74.24 H328.79 V63.64 H318.18 Z M328.79,63.64 V74.24 H339.39 V63.64 H328.79 Z M339.39,63.64 V74.24 H350 V63.64 H339.39 Z M84.85,74.24 V84.85 H95.45 V74.24 H84.85 Z M95.45,74.24 V84.85 H106.06 V74.24 H95.45 Z M116.67,74.24 V84.85 H127.27 V74.24 H116.67 Z M159.09,74.24 V84.85 H169.70 V74.24 H159.09 Z M169.70,74.24 V84.85 H180.30 V74.24 H169.70 Z M180.30,74.24 V84.85 H190.91 V74.24 H180.30 Z M201.52,74.24 V84.85 H212.12 V74.24 H201.52 Z M222.73,74.24 V84.85 H233.33 V74.24 H222.73 Z M0,84.85 V95.45 H10.61 V84.85 H0 Z M21.21,84.85 V95.45 H31.82 V84.85 H21.21 Z M31.82,84.85 V95.45 H42.42 V84.85 H31.82 Z M53.03,84.85 V95.45 H63.64 V84.85 H53.03 Z M63.64,84.85 V95.45 H74.24 V84.85 H63.64 Z M74.24,84.85 V95.45 H84.85 V84.85 H74.24 Z M84.85,84.85 V95.45 H95.45 V84.85 H84.85 Z M95.45,84.85 V95.45 H106.06 V84.85 H95.45 Z M116.67,84.85 V95.45 H127.27 V84.85 H116.67 Z M180.30,84.85 V95.45 H190.91 V84.85 H180.30 Z M265.15,84.85 V95.45 H275.76 V84.85 H265.15 Z M275.76,84.85 V95.45 H286.36 V84.85 H275.76 Z M286.36,84.85 V95.45 H296.97 V84.85 H286.36 Z M307.58,84.85 V95.45 H318.18 V84.85 H307.58 Z M328.79,84.85 V95.45 H339.39 V84.85 H328.79 Z M21.21,95.45 V106.06 H31.82 V95.45 H21.21 Z M31.82,95.45 V106.06 H42.42 V95.45 H31.82 Z M84.85,95.45 V106.06 H95.45 V95.45 H84.85 Z M95.45,95.45 V106.06 H106.06 V95.45 H95.45 Z M116.67,95.45 V106.06 H127.27 V95.45 H116.67 Z M127.27,95.45 V106.06 H137.88 V95.45 H127.27 Z M148.48,95.45 V106.06 H159.09 V95.45 H148.48 Z M159.09,95.45 V106.06 H169.70 V95.45 H159.09 Z M212.12,95.45 V106.06 H222.73 V95.45 H212.12 Z M243.94,95.45 V106.06 H254.55 V95.45 H243.94 Z M265.15,95.45 V106.06 H275.76 V95.45 H265.15 Z M286.36,95.45 V106.06 H296.97 V95.45 H286.36 Z M307.58,95.45 V106.06 H318.18 V95.45 H307.58 Z M10.61,106.06 V116.67 H21.21 V106.06 H10.61 Z M21.21,106.06 V116.67 H31.82 V106.06 H21.21 Z M63.64,106.06 V116.67 H74.24 V106.06 H63.64 Z M95.45,106.06 V116.67 H106.06 V106.06 H95.45 Z M127.27,106.06 V116.67 H137.88 V106.06 H127.27 Z M137.88,106.06 V116.67 H148.48 V106.06 H137.88 Z M148.48,106.06 V116.67 H159.09 V106.06 H148.48 Z M180.30,106.06 V116.67 H190.91 V106.06 H180.30 Z M233.33,106.06 V116.67 H243.94 V106.06 H233.33 Z M243.94,106.06 V116.67 H254.55 V106.06 H243.94 Z M254.55,106.06 V116.67 H265.15 V106.06 H254.55 Z M275.76,106.06 V116.67 H286.36 V106.06 H275.76 Z M286.36,106.06 V116.67 H296.97 V106.06 H286.36 Z M296.97,106.06 V116.67 H307.58 V106.06 H296.97 Z M328.79,106.06 V116.67 H339.39 V106.06 H328.79 Z M42.42,116.67 V127.27 H53.03 V116.67 H42.42 Z M74.24,116.67 V127.27 H84.85 V116.67 H74.24 Z M95.45,116.67 V127.27 H106.06 V116.67 H95.45 Z M127.27,116.67 V127.27 H137.88 V116.67 H127.27 Z M159.09,116.67 V127.27 H169.70 V116.67 H159.09 Z M169.70,116.67 V127.27 H180.30 V116.67 H169.70 Z M180.30,116.67 V127.27 H190.91 V116.67 H180.30 Z M201.52,116.67 V127.27 H212.12 V116.67 H201.52 Z M233.33,116.67 V127.27 H243.94 V116.67 H233.33 Z M254.55,116.67 V127.27 H265.15 V116.67 H254.55 Z M275.76,116.67 V127.27 H286.36 V116.67 H275.76 Z M286.36,116.67 V127.27 H296.97 V116.67 H286.36 Z M307.58,116.67 V127.27 H318.18 V116.67 H307.58 Z M318.18,116.67 V127.27 H328.79 V116.67 H318.18 Z M10.61,127.27 V137.88 H21.21 V127.27 H10.61 Z M21.21,127.27 V137.88 H31.82 V127.27 H21.21 Z M31.82,127.27 V137.88 H42.42 V127.27 H31.82 Z M63.64,127.27 V137.88 H74.24 V127.27 H63.64 Z M74.24,127.27 V137.88 H84.85 V127.27 H74.24 Z M95.45,127.27 V137.88 H106.06 V127.27 H95.45 Z M116.67,127.27 V137.88 H127.27 V127.27 H116.67 Z M148.48,127.27 V137.88 H159.09 V127.27 H148.48 Z M243.94,127.27 V137.88 H254.55 V127.27 H243.94 Z M275.76,127.27 V137.88 H286.36 V127.27 H275.76 Z M286.36,127.27 V137.88 H296.97 V127.27 H286.36 Z M31.82,137.88 V148.48 H42.42 V137.88 H31.82 Z M74.24,137.88 V148.48 H84.85 V137.88 H74.24 Z M84.85,137.88 V148.48 H95.45 V137.88 H84.85 Z M95.45,137.88 V148.48 H106.06 V137.88 H95.45 Z M106.06,137.88 V148.48 H116.67 V137.88 H106.06 Z M116.67,137.88 V148.48 H127.27 V137.88 H116.67 Z M137.88,137.88 V148.48 H148.48 V137.88 H137.88 Z M169.70,137.88 V148.48 H180.30 V137.88 H169.70 Z M180.30,137.88 V148.48 H190.91 V137.88 H180.30 Z M212.12,137.88 V148.48 H222.73 V137.88 H212.12 Z M243.94,137.88 V148.48 H254.55 V137.88 H243.94 Z M275.76,137.88 V148.48 H286.36 V137.88 H275.76 Z M286.36,137.88 V148.48 H296.97 V137.88 H286.36 Z M296.97,137.88 V148.48 H307.58 V137.88 H296.97 Z M318.18,137.88 V148.48 H328.79 V137.88 H318.18 Z M328.79,137.88 V148.48 H339.39 V137.88 H328.79 Z M339.39,137.88 V148.48 H350 V137.88 H339.39 Z M21.21,148.48 V159.09 H31.82 V148.48 H21.21 Z M63.64,148.48 V159.09 H74.24 V148.48 H63.64 Z M74.24,148.48 V159.09 H84.85 V148.48 H74.24 Z M84.85,148.48 V159.09 H95.45 V148.48 H84.85 Z M95.45,148.48 V159.09 H106.06 V148.48 H95.45 Z M106.06,148.48 V159.09 H116.67 V148.48 H106.06 Z M127.27,148.48 V159.09 H137.88 V148.48 H127.27 Z M148.48,148.48 V159.09 H159.09 V148.48 H148.48 Z M159.09,148.48 V159.09 H169.70 V148.48 H159.09 Z M169.70,148.48 V159.09 H180.30 V148.48 H169.70 Z M190.91,148.48 V159.09 H201.52 V148.48 H190.91 Z M222.73,148.48 V159.09 H233.33 V148.48 H222.73 Z M254.55,148.48 V159.09 H265.15 V148.48 H254.55 Z M318.18,148.48 V159.09 H328.79 V148.48 H318.18 Z M339.39,148.48 V159.09 H350 V148.48 H339.39 Z M10.61,159.09 V169.70 H21.21 V159.09 H10.61 Z M53.03,159.09 V169.70 H63.64 V159.09 H53.03 Z M95.45,159.09 V169.70 H106.06 V159.09 H95.45 Z M106.06,159.09 V169.70 H116.67 V159.09 H106.06 Z M116.67,159.09 V169.70 H127.27 V159.09 H116.67 Z M159.09,159.09 V169.70 H169.70 V159.09 H159.09 Z M180.30,159.09 V169.70 H190.91 V159.09 H180.30 Z M190.91,159.09 V169.70 H201.52 V159.09 H190.91 Z M233.33,159.09 V169.70 H243.94 V159.09 H233.33 Z M254.55,159.09 V169.70 H265.15 V159.09 H254.55 Z M265.15,159.09 V169.70 H275.76 V159.09 H265.15 Z M275.76,159.09 V169.70 H286.36 V159.09 H275.76 Z M286.36,159.09 V169.70 H296.97 V159.09 H286.36 Z M307.58,159.09 V169.70 H318.18 V159.09 H307.58 Z M328.79,159.09 V169.70 H339.39 V159.09 H328.79 Z M10.61,169.70 V180.30 H21.21 V169.70 H10.61 Z M31.82,169.70 V180.30 H42.42 V169.70 H31.82 Z M42.42,169.70 V180.30 H53.03 V169.70 H42.42 Z M63.64,169.70 V180.30 H74.24 V169.70 H63.64 Z M95.45,169.70 V180.30 H106.06 V169.70 H95.45 Z M106.06,169.70 V180.30 H116.67 V169.70 H106.06 Z M116.67,169.70 V180.30 H127.27 V169.70 H116.67 Z M127.27,169.70 V180.30 H137.88 V169.70 H127.27 Z M137.88,169.70 V180.30 H148.48 V169.70 H137.88 Z M180.30,169.70 V180.30 H190.91 V169.70 H180.30 Z M190.91,169.70 V180.30 H201.52 V169.70 H190.91 Z M212.12,169.70 V180.30 H222.73 V169.70 H212.12 Z M222.73,169.70 V180.30 H233.33 V169.70 H222.73 Z M243.94,169.70 V180.30 H254.55 V169.70 H243.94 Z M275.76,169.70 V180.30 H286.36 V169.70 H275.76 Z M307.58,169.70 V180.30 H318.18 V169.70 H307.58 Z M318.18,169.70 V180.30 H328.79 V169.70 H318.18 Z M10.61,180.30 V190.91 H21.21 V180.30 H10.61 Z M21.21,180.30 V190.91 H31.82 V180.30 H21.21 Z M31.82,180.30 V190.91 H42.42 V180.30 H31.82 Z M53.03,180.30 V190.91 H63.64 V180.30 H53.03 Z M74.24,180.30 V190.91 H84.85 V180.30 H74.24 Z M106.06,180.30 V190.91 H116.67 V180.30 H106.06 Z M116.67,180.30 V190.91 H127.27 V180.30 H116.67 Z M137.88,180.30 V190.91 H148.48 V180.30 H137.88 Z M148.48,180.30 V190.91 H159.09 V180.30 H148.48 Z M159.09,180.30 V190.91 H169.70 V180.30 H159.09 Z M169.70,180.30 V190.91 H180.30 V180.30 H169.70 Z M180.30,180.30 V190.91 H190.91 V180.30 H180.30 Z M190.91,180.30 V190.91 H201.52 V180.30 H190.91 Z M201.52,180.30 V190.91 H212.12 V180.30 H201.52 Z M254.55,180.30 V190.91 H265.15 V180.30 H254.55 Z M307.58,180.30 V190.91 H318.18 V180.30 H307.58 Z M318.18,180.30 V190.91 H328.79 V180.30 H318.18 Z M328.79,180.30 V190.91 H339.39 V180.30 H328.79 Z M0,190.91 V201.52 H10.61 V190.91 H0 Z M63.64,190.91 V201.52 H74.24 V190.91 H63.64 Z M148.48,190.91 V201.52 H159.09 V190.91 H148.48 Z M190.91,190.91 V201.52 H201.52 V190.91 H190.91 Z M201.52,190.91 V201.52 H212.12 V190.91 H201.52 Z M212.12,190.91 V201.52 H222.73 V190.91 H212.12 Z M265.15,190.91 V201.52 H275.76 V190.91 H265.15 Z M275.76,190.91 V201.52 H286.36 V190.91 H275.76 Z M296.97,190.91 V201.52 H307.58 V190.91 H296.97 Z M307.58,190.91 V201.52 H318.18 V190.91 H307.58 Z M318.18,190.91 V201.52 H328.79 V190.91 H318.18 Z M328.79,190.91 V201.52 H339.39 V190.91 H328.79 Z M339.39,190.91 V201.52 H350 V190.91 H339.39 Z M0,201.52 V212.12 H10.61 V201.52 H0 Z M31.82,201.52 V212.12 H42.42 V201.52 H31.82 Z M42.42,201.52 V212.12 H53.03 V201.52 H42.42 Z M74.24,201.52 V212.12 H84.85 V201.52 H74.24 Z M84.85,201.52 V212.12 H95.45 V201.52 H84.85 Z M106.06,201.52 V212.12 H116.67 V201.52 H106.06 Z M159.09,201.52 V212.12 H169.70 V201.52 H159.09 Z M169.70,201.52 V212.12 H180.30 V201.52 H169.70 Z M180.30,201.52 V212.12 H190.91 V201.52 H180.30 Z M201.52,201.52 V212.12 H212.12 V201.52 H201.52 Z M212.12,201.52 V212.12 H222.73 V201.52 H212.12 Z M222.73,201.52 V212.12 H233.33 V201.52 H222.73 Z M254.55,201.52 V212.12 H265.15 V201.52 H254.55 Z M265.15,201.52 V212.12 H275.76 V201.52 H265.15 Z M286.36,201.52 V212.12 H296.97 V201.52 H286.36 Z M307.58,201.52 V212.12 H318.18 V201.52 H307.58 Z M10.61,212.12 V222.73 H21.21 V212.12 H10.61 Z M21.21,212.12 V222.73 H31.82 V212.12 H21.21 Z M53.03,212.12 V222.73 H63.64 V212.12 H53.03 Z M63.64,212.12 V222.73 H74.24 V212.12 H63.64 Z M74.24,212.12 V222.73 H84.85 V212.12 H74.24 Z M95.45,212.12 V222.73 H106.06 V212.12 H95.45 Z M116.67,212.12 V222.73 H127.27 V212.12 H116.67 Z M148.48,212.12 V222.73 H159.09 V212.12 H148.48 Z M201.52,212.12 V222.73 H212.12 V212.12 H201.52 Z M222.73,212.12 V222.73 H233.33 V212.12 H222.73 Z M233.33,212.12 V222.73 H243.94 V212.12 H233.33 Z M254.55,212.12 V222.73 H265.15 V212.12 H254.55 Z M275.76,212.12 V222.73 H286.36 V212.12 H275.76 Z M286.36,212.12 V222.73 H296.97 V212.12 H286.36 Z M307.58,212.12 V222.73 H318.18 V212.12 H307.58 Z M10.61,222.73 V233.33 H21.21 V222.73 H10.61 Z M31.82,222.73 V233.33 H42.42 V222.73 H31.82 Z M74.24,222.73 V233.33 H84.85 V222.73 H74.24 Z M84.85,222.73 V233.33 H95.45 V222.73 H84.85 Z M106.06,222.73 V233.33 H116.67 V222.73 H106.06 Z M148.48,222.73 V233.33 H159.09 V222.73 H148.48 Z M159.09,222.73 V233.33 H169.70 V222.73 H159.09 Z M169.70,222.73 V233.33 H180.30 V222.73 H169.70 Z M180.30,222.73 V233.33 H190.91 V222.73 H180.30 Z M201.52,222.73 V233.33 H212.12 V222.73 H201.52 Z M222.73,222.73 V233.33 H233.33 V222.73 H222.73 Z M233.33,222.73 V233.33 H243.94 V222.73 H233.33 Z M243.94,222.73 V233.33 H254.55 V222.73 H243.94 Z M254.55,222.73 V233.33 H265.15 V222.73 H254.55 Z M275.76,222.73 V233.33 H286.36 V222.73 H275.76 Z M318.18,222.73 V233.33 H328.79 V222.73 H318.18 Z M328.79,222.73 V233.33 H339.39 V222.73 H328.79 Z M339.39,222.73 V233.33 H350 V222.73 H339.39 Z M0,233.33 V243.94 H10.61 V233.33 H0 Z M10.61,233.33 V243.94 H21.21 V233.33 H10.61 Z M42.42,233.33 V243.94 H53.03 V233.33 H42.42 Z M63.64,233.33 V243.94 H74.24 V233.33 H63.64 Z M74.24,233.33 V243.94 H84.85 V233.33 H74.24 Z M84.85,233.33 V243.94 H95.45 V233.33 H84.85 Z M106.06,233.33 V243.94 H116.67 V233.33 H106.06 Z M137.88,233.33 V243.94 H148.48 V233.33 H137.88 Z M169.70,233.33 V243.94 H180.30 V233.33 H169.70 Z M190.91,233.33 V243.94 H201.52 V233.33 H190.91 Z M212.12,233.33 V243.94 H222.73 V233.33 H212.12 Z M222.73,233.33 V243.94 H233.33 V233.33 H222.73 Z M243.94,233.33 V243.94 H254.55 V233.33 H243.94 Z M265.15,233.33 V243.94 H275.76 V233.33 H265.15 Z M296.97,233.33 V243.94 H307.58 V233.33 H296.97 Z M0,243.94 V254.55 H10.61 V243.94 H0 Z M10.61,243.94 V254.55 H21.21 V243.94 H10.61 Z M21.21,243.94 V254.55 H31.82 V243.94 H21.21 Z M31.82,243.94 V254.55 H42.42 V243.94 H31.82 Z M53.03,243.94 V254.55 H63.64 V243.94 H53.03 Z M127.27,243.94 V254.55 H137.88 V243.94 H127.27 Z M137.88,243.94 V254.55 H148.48 V243.94 H137.88 Z M148.48,243.94 V254.55 H159.09 V243.94 H148.48 Z M169.70,243.94 V254.55 H180.30 V243.94 H169.70 Z M180.30,243.94 V254.55 H190.91 V243.94 H180.30 Z M201.52,243.94 V254.55 H212.12 V243.94 H201.52 Z M212.12,243.94 V254.55 H222.73 V243.94 H212.12 Z M307.58,243.94 V254.55 H318.18 V243.94 H307.58 Z M328.79,243.94 V254.55 H339.39 V243.94 H328.79 Z M10.61,254.55 V265.15 H21.21 V254.55 H10.61 Z M63.64,254.55 V265.15 H74.24 V254.55 H63.64 Z M74.24,254.55 V265.15 H84.85 V254.55 H74.24 Z M95.45,254.55 V265.15 H106.06 V254.55 H95.45 Z M106.06,254.55 V265.15 H116.67 V254.55 H106.06 Z M127.27,254.55 V265.15 H137.88 V254.55 H127.27 Z M148.48,254.55 V265.15 H159.09 V254.55 H148.48 Z M169.70,254.55 V265.15 H180.30 V254.55 H169.70 Z M180.30,254.55 V265.15 H190.91 V254.55 H180.30 Z M190.91,254.55 V265.15 H201.52 V254.55 H190.91 Z M201.52,254.55 V265.15 H212.12 V254.55 H201.52 Z M222.73,254.55 V265.15 H233.33 V254.55 H222.73 Z M243.94,254.55 V265.15 H254.55 V254.55 H243.94 Z M254.55,254.55 V265.15 H265.15 V254.55 H254.55 Z M265.15,254.55 V265.15 H275.76 V254.55 H265.15 Z M275.76,254.55 V265.15 H286.36 V254.55 H275.76 Z M286.36,254.55 V265.15 H296.97 V254.55 H286.36 Z M296.97,254.55 V265.15 H307.58 V254.55 H296.97 Z M328.79,254.55 V265.15 H339.39 V254.55 H328.79 Z M339.39,254.55 V265.15 H350 V254.55 H339.39 Z M84.85,265.15 V275.76 H95.45 V265.15 H84.85 Z M95.45,265.15 V275.76 H106.06 V265.15 H95.45 Z M127.27,265.15 V275.76 H137.88 V265.15 H127.27 Z M148.48,265.15 V275.76 H159.09 V265.15 H148.48 Z M180.30,265.15 V275.76 H190.91 V265.15 H180.30 Z M190.91,265.15 V275.76 H201.52 V265.15 H190.91 Z M201.52,265.15 V275.76 H212.12 V265.15 H201.52 Z M212.12,265.15 V275.76 H222.73 V265.15 H212.12 Z M222.73,265.15 V275.76 H233.33 V265.15 H222.73 Z M254.55,265.15 V275.76 H265.15 V265.15 H254.55 Z M296.97,265.15 V275.76 H307.58 V265.15 H296.97 Z M328.79,265.15 V275.76 H339.39 V265.15 H328.79 Z M0,275.76 V286.36 H10.61 V275.76 H0 Z M10.61,275.76 V286.36 H21.21 V275.76 H10.61 Z M21.21,275.76 V286.36 H31.82 V275.76 H21.21 Z M31.82,275.76 V286.36 H42.42 V275.76 H31.82 Z M42.42,275.76 V286.36 H53.03 V275.76 H42.42 Z M53.03,275.76 V286.36 H63.64 V275.76 H53.03 Z M63.64,275.76 V286.36 H74.24 V275.76 H63.64 Z M84.85,275.76 V286.36 H95.45 V275.76 H84.85 Z M95.45,275.76 V286.36 H106.06 V275.76 H95.45 Z M106.06,275.76 V286.36 H116.67 V275.76 H106.06 Z M127.27,275.76 V286.36 H137.88 V275.76 H127.27 Z M137.88,275.76 V286.36 H148.48 V275.76 H137.88 Z M148.48,275.76 V286.36 H159.09 V275.76 H148.48 Z M159.09,275.76 V286.36 H169.70 V275.76 H159.09 Z M169.70,275.76 V286.36 H180.30 V275.76 H169.70 Z M201.52,275.76 V286.36 H212.12 V275.76 H201.52 Z M222.73,275.76 V286.36 H233.33 V275.76 H222.73 Z M233.33,275.76 V286.36 H243.94 V275.76 H233.33 Z M254.55,275.76 V286.36 H265.15 V275.76 H254.55 Z M275.76,275.76 V286.36 H286.36 V275.76 H275.76 Z M296.97,275.76 V286.36 H307.58 V275.76 H296.97 Z M307.58,275.76 V286.36 H318.18 V275.76 H307.58 Z M0,286.36 V296.97 H10.61 V286.36 H0 Z M63.64,286.36 V296.97 H74.24 V286.36 H63.64 Z M84.85,286.36 V296.97 H95.45 V286.36 H84.85 Z M95.45,286.36 V296.97 H106.06 V286.36 H95.45 Z M106.06,286.36 V296.97 H116.67 V286.36 H106.06 Z M148.48,286.36 V296.97 H159.09 V286.36 H148.48 Z M180.30,286.36 V296.97 H190.91 V286.36 H180.30 Z M201.52,286.36 V296.97 H212.12 V286.36 H201.52 Z M254.55,286.36 V296.97 H265.15 V286.36 H254.55 Z M296.97,286.36 V296.97 H307.58 V286.36 H296.97 Z M0,296.97 V307.58 H10.61 V296.97 H0 Z M21.21,296.97 V307.58 H31.82 V296.97 H21.21 Z M31.82,296.97 V307.58 H42.42 V296.97 H31.82 Z M42.42,296.97 V307.58 H53.03 V296.97 H42.42 Z M63.64,296.97 V307.58 H74.24 V296.97 H63.64 Z M106.06,296.97 V307.58 H116.67 V296.97 H106.06 Z M116.67,296.97 V307.58 H127.27 V296.97 H116.67 Z M137.88,296.97 V307.58 H148.48 V296.97 H137.88 Z M148.48,296.97 V307.58 H159.09 V296.97 H148.48 Z M169.70,296.97 V307.58 H180.30 V296.97 H169.70 Z M254.55,296.97 V307.58 H265.15 V296.97 H254.55 Z M265.15,296.97 V307.58 H275.76 V296.97 H265.15 Z M275.76,296.97 V307.58 H286.36 V296.97 H275.76 Z M286.36,296.97 V307.58 H296.97 V296.97 H286.36 Z M296.97,296.97 V307.58 H307.58 V296.97 H296.97 Z M307.58,296.97 V307.58 H318.18 V296.97 H307.58 Z M318.18,296.97 V307.58 H328.79 V296.97 H318.18 Z M339.39,296.97 V307.58 H350 V296.97 H339.39 Z M0,307.58 V318.18 H10.61 V307.58 H0 Z M21.21,307.58 V318.18 H31.82 V307.58 H21.21 Z M31.82,307.58 V318.18 H42.42 V307.58 H31.82 Z M42.42,307.58 V318.18 H53.03 V307.58 H42.42 Z M63.64,307.58 V318.18 H74.24 V307.58 H63.64 Z M84.85,307.58 V318.18 H95.45 V307.58 H84.85 Z M116.67,307.58 V318.18 H127.27 V307.58 H116.67 Z M127.27,307.58 V318.18 H137.88 V307.58 H127.27 Z M137.88,307.58 V318.18 H148.48 V307.58 H137.88 Z M180.30,307.58 V318.18 H190.91 V307.58 H180.30 Z M233.33,307.58 V318.18 H243.94 V307.58 H233.33 Z M243.94,307.58 V318.18 H254.55 V307.58 H243.94 Z M265.15,307.58 V318.18 H275.76 V307.58 H265.15 Z M275.76,307.58 V318.18 H286.36 V307.58 H275.76 Z M296.97,307.58 V318.18 H307.58 V307.58 H296.97 Z M307.58,307.58 V318.18 H318.18 V307.58 H307.58 Z M339.39,307.58 V318.18 H350 V307.58 H339.39 Z M0,318.18 V328.79 H10.61 V318.18 H0 Z M21.21,318.18 V328.79 H31.82 V318.18 H21.21 Z M31.82,318.18 V328.79 H42.42 V318.18 H31.82 Z M42.42,318.18 V328.79 H53.03 V318.18 H42.42 Z M63.64,318.18 V328.79 H74.24 V318.18 H63.64 Z M84.85,318.18 V328.79 H95.45 V318.18 H84.85 Z M106.06,318.18 V328.79 H116.67 V318.18 H106.06 Z M137.88,318.18 V328.79 H148.48 V318.18 H137.88 Z M148.48,318.18 V328.79 H159.09 V318.18 H148.48 Z M190.91,318.18 V328.79 H201.52 V318.18 H190.91 Z M233.33,318.18 V328.79 H243.94 V318.18 H233.33 Z M275.76,318.18 V328.79 H286.36 V318.18 H275.76 Z M307.58,318.18 V328.79 H318.18 V318.18 H307.58 Z M339.39,318.18 V328.79 H350 V318.18 H339.39 Z M0,328.79 V339.39 H10.61 V328.79 H0 Z M63.64,328.79 V339.39 H74.24 V328.79 H63.64 Z M95.45,328.79 V339.39 H106.06 V328.79 H95.45 Z M116.67,328.79 V339.39 H127.27 V328.79 H116.67 Z M127.27,328.79 V339.39 H137.88 V328.79 H127.27 Z M137.88,328.79 V339.39 H148.48 V328.79 H137.88 Z M148.48,328.79 V339.39 H159.09 V328.79 H148.48 Z M159.09,328.79 V339.39 H169.70 V328.79 H159.09 Z M169.70,328.79 V339.39 H180.30 V328.79 H169.70 Z M190.91,328.79 V339.39 H201.52 V328.79 H190.91 Z M201.52,328.79 V339.39 H212.12 V328.79 H201.52 Z M222.73,328.79 V339.39 H233.33 V328.79 H222.73 Z M265.15,328.79 V339.39 H275.76 V328.79 H265.15 Z M275.76,328.79 V339.39 H286.36 V328.79 H275.76 Z M296.97,328.79 V339.39 H307.58 V328.79 H296.97 Z M307.58,328.79 V339.39 H318.18 V328.79 H307.58 Z M339.39,328.79 V339.39 H350 V328.79 H339.39 Z M0,339.39 V350 H10.61 V339.39 H0 Z M10.61,339.39 V350 H21.21 V339.39 H10.61 Z M21.21,339.39 V350 H31.82 V339.39 H21.21 Z M31.82,339.39 V350 H42.42 V339.39 H31.82 Z M42.42,339.39 V350 H53.03 V339.39 H42.42 Z M53.03,339.39 V350 H63.64 V339.39 H53.03 Z M63.64,339.39 V350 H74.24 V339.39 H63.64 Z M84.85,339.39 V350 H95.45 V339.39 H84.85 Z M95.45,339.39 V350 H106.06 V339.39 H95.45 Z M106.06,339.39 V350 H116.67 V339.39 H106.06 Z M116.67,339.39 V350 H127.27 V339.39 H116.67 Z M127.27,339.39 V350 H137.88 V339.39 H127.27 Z M137.88,339.39 V350 H148.48 V339.39 H137.88 Z M190.91,339.39 V350 H201.52 V339.39 H190.91 Z M201.52,339.39 V350 H212.12 V339.39 H201.52 Z M222.73,339.39 V350 H233.33 V339.39 H222.73 Z M233.33,339.39 V350 H243.94 V339.39 H233.33 Z M254.55,339.39 V350 H265.15 V339.39 H254.55 Z M265.15,339.39 V350 H275.76 V339.39 H265.15 Z M296.97,339.39 V350 H307.58 V339.39 H296.97 Z M318.18,339.39 V350 H328.79 V339.39 H318.18 Z "></path></svg><circle fill="#fff" stroke-width="6px" stroke="#000" cx="175" cy="175" r="65.75"></circle><svg x="117.25" y="117.25" width="115.5" height="115.5" viewBox="0 0 24 24" fill="#000"><path d="M12 0c-6.626 0-12 5.373-12 12 0 5.302 3.438 9.8 8.207 11.387.599.111.793-.261.793-.577v-2.234c-3.338.726-4.033-1.416-4.033-1.416-.546-1.387-1.333-1.756-1.333-1.756-1.089-.745.083-.729.083-.729 1.205.084 1.839 1.237 1.839 1.237 1.07 1.834 2.807 1.304 3.492.997.107-.775.418-1.305.762-1.604-2.665-.305-5.467-1.334-5.467-5.931 0-1.311.469-2.381 1.236-3.221-.124-.303-.535-1.524.117-3.176 0 0 1.008-.322 3.301 1.23.957-.266 1.983-.399 3.003-.404 1.02.005 2.047.138 3.006.404 2.291-1.552 3.297-1.23 3.297-1.23.653 1.653.242 2.874.118 3.176.77.84 1.235 1.911 1.235 3.221 0 4.609-2.807 5.624-5.479 5.921.43.372.823 1.102.823 2.222v3.293c0 .319.192.694.801.576 4.765-1.589 8.199-6.086 8.199-11.386 0-6.627-5.373-12-12-12z"></path></svg></svg>